<mxfile host="app.diagrams.net" agent="Mozilla/5.0 (Macintosh; Intel Mac OS X 10_15_7) AppleWebKit/537.36 (KHTML, like Gecko) Chrome/135.0.0.0 Safari/537.36" version="26.2.15">
  <diagram name="Page-1" id="5D61OBoP_WJK-rQfpGlN">
    <mxGraphModel dx="1268" dy="1722" grid="1" gridSize="10" guides="1" tooltips="1" connect="1" arrows="1" fold="1" page="1" pageScale="1" pageWidth="1100" pageHeight="850" math="0" shadow="0">
      <root>
        <mxCell id="0" />
        <mxCell id="1" parent="0" />
        <mxCell id="6-c6_dTJnsOrzSM4XRfA-1" style="edgeStyle=orthogonalEdgeStyle;rounded=0;orthogonalLoop=1;jettySize=auto;html=1;entryX=0;entryY=0.5;entryDx=0;entryDy=0;endArrow=none;startFill=0;" parent="1" source="6-c6_dTJnsOrzSM4XRfA-3" target="6-c6_dTJnsOrzSM4XRfA-5" edge="1">
          <mxGeometry relative="1" as="geometry" />
        </mxCell>
        <mxCell id="6-c6_dTJnsOrzSM4XRfA-2" style="edgeStyle=orthogonalEdgeStyle;rounded=0;orthogonalLoop=1;jettySize=auto;html=1;entryX=0;entryY=0.5;entryDx=0;entryDy=0;endArrow=none;startFill=0;" parent="1" source="6-c6_dTJnsOrzSM4XRfA-3" target="6-c6_dTJnsOrzSM4XRfA-4" edge="1">
          <mxGeometry relative="1" as="geometry" />
        </mxCell>
        <mxCell id="6-c6_dTJnsOrzSM4XRfA-3" value="Access Point 1" style="rounded=0;whiteSpace=wrap;html=1;" parent="1" vertex="1">
          <mxGeometry x="525" y="260" width="120" height="60" as="geometry" />
        </mxCell>
        <mxCell id="6-c6_dTJnsOrzSM4XRfA-4" value="Staff Device" style="whiteSpace=wrap;html=1;aspect=fixed;" parent="1" vertex="1">
          <mxGeometry x="805" y="310" width="70" height="70" as="geometry" />
        </mxCell>
        <mxCell id="6-c6_dTJnsOrzSM4XRfA-6" value="VLAN 10;&amp;nbsp;&lt;span style=&quot;background-color: transparent; color: light-dark(rgb(0, 0, 0), rgb(255, 255, 255));&quot;&gt;SSID: Travel_Brisbane_Staff;&amp;nbsp;&lt;/span&gt;WPA2/ Enterprise&lt;div&gt;VLAN 20;&amp;nbsp;&lt;span style=&quot;color: light-dark(rgb(0, 0, 0), rgb(255, 255, 255)); background-color: transparent;&quot;&gt;SSID: Travel_&lt;/span&gt;&lt;span style=&quot;background-color: transparent; color: light-dark(rgb(0, 0, 0), rgb(255, 255, 255));&quot;&gt;Brisbane_&lt;/span&gt;&lt;span style=&quot;background-color: transparent; color: light-dark(rgb(0, 0, 0), rgb(255, 255, 255));&quot;&gt;Guest;&amp;nbsp;&lt;/span&gt;&lt;span style=&quot;background-color: transparent; color: light-dark(rgb(0, 0, 0), rgb(255, 255, 255));&quot;&gt;WPA2/ Personal&lt;/span&gt;&lt;/div&gt;" style="text;html=1;align=center;verticalAlign=middle;resizable=0;points=[];autosize=1;strokeColor=none;fillColor=none;" parent="1" vertex="1">
          <mxGeometry x="200" y="270" width="330" height="40" as="geometry" />
        </mxCell>
        <mxCell id="6-c6_dTJnsOrzSM4XRfA-7" value="VLAN 30;&amp;nbsp;&lt;span style=&quot;background-color: transparent; color: light-dark(rgb(0, 0, 0), rgb(255, 255, 255));&quot;&gt;SSID: Travel_&lt;/span&gt;Brisbane_&lt;span style=&quot;background-color: transparent; color: light-dark(rgb(0, 0, 0), rgb(255, 255, 255));&quot;&gt;Staff;&amp;nbsp;&lt;/span&gt;WPA2/ Enterprise&lt;div&gt;VLAN 40;&amp;nbsp;&lt;span style=&quot;color: light-dark(rgb(0, 0, 0), rgb(255, 255, 255)); background-color: transparent;&quot;&gt;SSID: Travel_&lt;/span&gt;&lt;span style=&quot;background-color: transparent; color: light-dark(rgb(0, 0, 0), rgb(255, 255, 255));&quot;&gt;Brisbane_&lt;/span&gt;&lt;span style=&quot;background-color: transparent; color: light-dark(rgb(0, 0, 0), rgb(255, 255, 255));&quot;&gt;Guest;&amp;nbsp;&lt;/span&gt;&lt;span style=&quot;background-color: transparent; color: light-dark(rgb(0, 0, 0), rgb(255, 255, 255));&quot;&gt;WPA2/ Personal&lt;/span&gt;&lt;/div&gt;" style="text;html=1;align=center;verticalAlign=middle;resizable=0;points=[];autosize=1;strokeColor=none;fillColor=none;" parent="1" vertex="1">
          <mxGeometry x="190" y="470" width="330" height="40" as="geometry" />
        </mxCell>
        <mxCell id="6-c6_dTJnsOrzSM4XRfA-8" style="edgeStyle=orthogonalEdgeStyle;rounded=0;orthogonalLoop=1;jettySize=auto;html=1;entryX=0;entryY=0.5;entryDx=0;entryDy=0;endArrow=none;startFill=0;" parent="1" source="6-c6_dTJnsOrzSM4XRfA-10" target="fV6bFuYDKIVshaS7F-07-4" edge="1">
          <mxGeometry relative="1" as="geometry" />
        </mxCell>
        <mxCell id="6-c6_dTJnsOrzSM4XRfA-9" style="edgeStyle=orthogonalEdgeStyle;rounded=0;orthogonalLoop=1;jettySize=auto;html=1;entryX=0;entryY=0.5;entryDx=0;entryDy=0;endArrow=none;startFill=0;" parent="1" source="6-c6_dTJnsOrzSM4XRfA-10" target="6-c6_dTJnsOrzSM4XRfA-11" edge="1">
          <mxGeometry relative="1" as="geometry" />
        </mxCell>
        <mxCell id="6-c6_dTJnsOrzSM4XRfA-10" value="Access Point 2" style="rounded=0;whiteSpace=wrap;html=1;" parent="1" vertex="1">
          <mxGeometry x="525" y="460" width="120" height="60" as="geometry" />
        </mxCell>
        <mxCell id="6-c6_dTJnsOrzSM4XRfA-11" value="Staff Device" style="whiteSpace=wrap;html=1;aspect=fixed;" parent="1" vertex="1">
          <mxGeometry x="805" y="510" width="70" height="70" as="geometry" />
        </mxCell>
        <mxCell id="6-c6_dTJnsOrzSM4XRfA-14" value="&lt;b style=&quot;font-size: 16px; text-wrap-mode: nowrap;&quot;&gt;BRISBANE WIFI NETWORK DIAGRAM&lt;/b&gt;&lt;br style=&quot;font-size: 16px; text-wrap-mode: nowrap;&quot;&gt;&lt;span style=&quot;font-size: 16px; text-wrap-mode: nowrap;&quot;&gt;NAME: MD MAHAFUZ FAYSAL&lt;/span&gt;&lt;div style=&quot;font-size: 16px; text-wrap-mode: nowrap;&quot;&gt;ID: 12281612&lt;/div&gt;" style="text;html=1;align=center;verticalAlign=middle;whiteSpace=wrap;rounded=0;strokeColor=default;fillColor=none;" parent="1" vertex="1">
          <mxGeometry x="25" y="40" width="395" height="110" as="geometry" />
        </mxCell>
        <mxCell id="fV6bFuYDKIVshaS7F-07-2" value="" style="group" vertex="1" connectable="0" parent="1">
          <mxGeometry x="805" y="200" width="70" height="70" as="geometry" />
        </mxCell>
        <mxCell id="6-c6_dTJnsOrzSM4XRfA-5" value="" style="whiteSpace=wrap;html=1;aspect=fixed;" parent="fV6bFuYDKIVshaS7F-07-2" vertex="1">
          <mxGeometry width="70" height="70" as="geometry" />
        </mxCell>
        <mxCell id="fV6bFuYDKIVshaS7F-07-1" value="&lt;div&gt;&lt;br&gt;&lt;/div&gt;&lt;div&gt;&lt;br&gt;&lt;/div&gt;Guest Device" style="shape=actor;whiteSpace=wrap;html=1;" vertex="1" parent="fV6bFuYDKIVshaS7F-07-2">
          <mxGeometry x="8" y="4" width="55" height="60" as="geometry" />
        </mxCell>
        <mxCell id="fV6bFuYDKIVshaS7F-07-3" value="" style="group" vertex="1" connectable="0" parent="1">
          <mxGeometry x="805" y="393" width="70" height="70" as="geometry" />
        </mxCell>
        <mxCell id="fV6bFuYDKIVshaS7F-07-4" value="" style="whiteSpace=wrap;html=1;aspect=fixed;" vertex="1" parent="fV6bFuYDKIVshaS7F-07-3">
          <mxGeometry width="70" height="70" as="geometry" />
        </mxCell>
        <mxCell id="fV6bFuYDKIVshaS7F-07-5" value="&lt;div&gt;&lt;br&gt;&lt;/div&gt;&lt;div&gt;&lt;br&gt;&lt;/div&gt;Guest Device" style="shape=actor;whiteSpace=wrap;html=1;" vertex="1" parent="fV6bFuYDKIVshaS7F-07-3">
          <mxGeometry x="8" y="4" width="55" height="60" as="geometry" />
        </mxCell>
      </root>
    </mxGraphModel>
  </diagram>
</mxfile>
